<svg xmlns="http://www.w3.org/2000/svg" width="35" height="35" viewBox="0 0 35 35"><g><g><path fill="#fff" d="M28.731 27.847c-.048-.055-4.915-5.302-13.304-1.441a.655.655 0 0 1-.872-.347.69.69 0 0 1 .333-.902c9.244-4.25 14.758 1.7 14.813 1.758a.698.698 0 0 1-.034.966.646.646 0 0 1-.936-.034zM4.148 9.82l.202-.338C5.9 6.88 8.788 2.035 11.225.357c1.48-1.015 8.013.316 10.325 1.396.57.266 1.233.652 1.316 1.286l.057.413c.146 1.028.296 2.09-.59 2.607-.507.3-1.548.448-2.426.521.593.86.501 1.252.466 1.408a.869.869 0 0 1-.573.636c-.927.318-4.095.683-6.712.361.459 1.676 1.394 5.935.386 9.727 2.784-.888 5.705.252 6.938.857 4.467-7.768 14.097-3.667 14.196-3.622a.689.689 0 0 1 .351.893.658.658 0 0 1-.867.367c-.369-.162-9.086-3.855-12.825 3.587a.666.666 0 0 1-.402.34.643.643 0 0 1-.517-.066c-.039-.022-3.83-2.248-6.944-.907-.241.104-.469.23-.692.374a.6.6 0 0 0-.036.026c-1.378.9-2.388 2.537-2.991 4.894a.666.666 0 0 1-.638.507.682.682 0 0 1-.638-.858c.67-2.616 1.816-4.477 3.398-5.58 1.864-4.464-.142-10.695-.185-10.818-.904-.25-1.637-.624-2.02-1.182a.695.695 0 0 1 .153-.951.653.653 0 0 1 .921.158c.825 1.188 5.975 1.233 8.21.735a8.575 8.575 0 0 0-.833-1.014.697.697 0 0 1-.141-.738.659.659 0 0 1 .6-.426c1.224-.023 2.782-.187 3.165-.41.09-.143-.002-.795-.063-1.225l-.045-.326c-.964-1.008-8.61-2.476-9.607-1.832-2.2 1.51-4.988 6.188-6.484 8.703l-.203.341C-.46 20.148 1.768 25.233 1.79 25.278a.69.69 0 0 1 .014.57c-.429 1.034-.47 1.928-.127 2.664.618 1.322 2.293 1.805 2.397 1.843 15.083 6.628 21.939 1.057 22.003 1.003a.65.65 0 0 1 .842-.005c2.874 2.426 6.228 1.422 6.369 1.376a.66.66 0 0 1 .824.457.684.684 0 0 1-.438.85c-.163.05-3.853 1.179-7.188-1.304-1.04.706-3.913 2.277-8.852 2.277-3.563 0-8.197-.818-13.992-3.368-.09-.025-2.264-.643-3.153-2.526C0 28.077-.003 26.889.48 25.58c-.46-1.295-1.77-6.65 3.667-15.76z"/></g></g></svg>