<svg xmlns="http://www.w3.org/2000/svg" width="40" height="40" viewBox="0 0 40 40"><g><g><path fill="#fff" d="M40 20c0 11.027-8.972 20-20 20S0 31.027 0 20C0 8.971 8.972 0 20 0s20 8.972 20 20zm-3.429 0c0-9.138-7.434-16.572-16.571-16.572S3.429 10.863 3.429 20c0 9.138 7.434 16.572 16.57 16.572 9.138 0 16.572-7.434 16.572-16.572zm-8.832-5.314l-5.315 5.315 5.315 5.315a1.714 1.714 0 1 1-2.424 2.425L20 22.426l-5.315 5.315a1.71 1.71 0 0 1-2.424 0 1.714 1.714 0 0 1 0-2.425l5.315-5.315-5.315-5.315a1.713 1.713 0 1 1 2.424-2.424L20 17.577l5.315-5.315a1.713 1.713 0 1 1 2.424 2.424z"/></g></g></svg>