<svg xmlns="http://www.w3.org/2000/svg" width="44" height="44" viewBox="0 0 44 44"><g><g><path fill="#b12f2f" d="M22 43.999c-12.152 0-22-9.848-22-22s9.848-22 22-22 22 9.848 22 22-9.848 22-22 22zm0-2.133c10.941 0 19.867-8.926 19.867-19.867S32.941 2.132 22 2.132 2.133 11.058 2.133 21.999 11.059 41.866 22 41.866zm-.693-11.288a1.076 1.076 0 0 1-1.499 0l-7.886-7.832c-.058-.059-.117-.118-.117-.171l-.059-.059c0-.059-.058-.059-.058-.117 0-.06 0-.06-.059-.118v-.117-.229-.229-.118c0-.059 0-.059.059-.117 0-.059.058-.059.058-.118 0 0 0-.058.059-.058.059-.058.059-.118.117-.17l7.945-7.764a1.074 1.074 0 0 1 1.498 0 1.075 1.075 0 0 1 0 1.499l-6.105 6.105h16.876c.576 0 1.035.458 1.035 1.034 0 .576-.459 1.034-1.035 1.034h-16.87l5.987 5.994c.46.458.46 1.151.054 1.551z"/></g></g></svg>