<svg xmlns="http://www.w3.org/2000/svg" width="50" height="50" viewBox="0 0 50 50"><g><g><path fill="#fff" d="M21.38 37.01a1.47 1.47 0 0 1-1.472-1.471V14.448a1.472 1.472 0 0 1 2.415-1.132l12.66 10.547a1.472 1.472 0 0 1 0 2.26L22.322 36.67c-.269.225-.604.34-.942.34zm1.473-19.422v14.81l8.888-7.405zm2.103 32.41c-4.19 0-8.406-1.044-12.224-3.194a1.471 1.471 0 1 1 1.444-2.565c8.588 4.835 19.46 3.34 26.436-3.638 8.609-8.606 8.609-22.61 0-31.217-8.609-8.608-22.617-8.607-31.225 0s-8.608 22.61 0 31.217a1.472 1.472 0 0 1-2.081 2.082c-9.757-9.755-9.757-25.626 0-35.38 9.756-9.754 25.63-9.755 35.388 0 9.757 9.754 9.757 25.625 0 35.38-4.806 4.805-11.243 7.315-17.738 7.315z"/></g></g></svg>